HIERARCHY
ROOT RootJoint
{
    OFFSET   0.000000   0.000000   0.000000
    CHANNELS 6 Xposition Yposition Zposition Xrotation Yrotation Zrotation
    JOINT pelvis_lowerback
    {
        OFFSET   0.000000   0.093605   0.000000
        CHANNELS 3 Xrotation Yrotation Zrotation
        JOINT lowerback_torso
        {
            OFFSET   0.000000   0.100000   0.000000
            CHANNELS 3 Xrotation Yrotation Zrotation
            JOINT torso_head
            {
                OFFSET   0.000000   0.282350   0.000000
                CHANNELS 3 Xrotation Yrotation Zrotation
                End Site
                {
                    OFFSET   0.000000   0.192650   0.000000
                }
            }
            JOINT rTorso_Clavicle
            {
                OFFSET  -0.001000   0.157500   0.000000
                CHANNELS 3 Xrotation Yrotation Zrotation
                JOINT rShoulder
                {
                    OFFSET  -0.117647   0.000000   0.000000
                    CHANNELS 3 Xrotation Yrotation Zrotation
                    JOINT rElbow
                    {
                        OFFSET  -0.245000   0.000000   0.000000
                        CHANNELS 3 Xrotation Yrotation Zrotation
                        JOINT rWrist
                        {
                            OFFSET  -0.240000   0.000000   0.000000
                            CHANNELS 3 Xrotation Yrotation Zrotation
                            End Site
                            {
                                OFFSET  -0.116353  -0.002500   0.000000
                            }
                        }
                    }
                }
            }
            JOINT lTorso_Clavicle
            {
                OFFSET   0.001000   0.157500   0.000000
                CHANNELS 3 Xrotation Yrotation Zrotation
                JOINT lShoulder
                {
                    OFFSET   0.117647   0.000000   0.000000
                    CHANNELS 3 Xrotation Yrotation Zrotation
                    JOINT lElbow
                    {
                        OFFSET   0.245000   0.000000   0.000000
                        CHANNELS 3 Xrotation Yrotation Zrotation
                        JOINT lWrist
                        {
                            OFFSET   0.240000   0.000000   0.000000
                            CHANNELS 3 Xrotation Yrotation Zrotation
                            End Site
                            {
                                OFFSET   0.116353  -0.002500   0.000000
                            }
                        }
                    }
                }
            }
        }
    }
    JOINT rHip
    {
        OFFSET  -0.100000  -0.051395   0.000000
        CHANNELS 3 Xrotation Yrotation Zrotation
        JOINT rKnee
        {
            OFFSET   0.000000  -0.410000   0.000000
            CHANNELS 3 Xrotation Yrotation Zrotation
            JOINT rAnkle
            {
                OFFSET   0.000000  -0.390000   0.000000
                CHANNELS 3 Xrotation Yrotation Zrotation
                JOINT rToeJoint
                {
                    OFFSET   0.000000  -0.050000   0.130000
                    CHANNELS 3 Xrotation Yrotation Zrotation
                    End Site
                    {
                        OFFSET  -0.010000   0.002000   0.060000
                    }
                }
            }
        }
    }
    JOINT lHip
    {
        OFFSET   0.100000  -0.051395   0.000000
        CHANNELS 3 Xrotation Yrotation Zrotation
        JOINT lKnee
        {
            OFFSET   0.000000  -0.410000   0.000000
            CHANNELS 3 Xrotation Yrotation Zrotation
            JOINT lAnkle
            {
                OFFSET   0.000000  -0.390000   0.000000
                CHANNELS 3 Xrotation Yrotation Zrotation
                JOINT lToeJoint
                {
                    OFFSET   0.000000  -0.050000   0.130000
                    CHANNELS 3 Xrotation Yrotation Zrotation
                    End Site
                    {
                        OFFSET   0.010000   0.002000   0.060000
                    }
                }
            }
        }
    }
}
MOTION
Frames: 12
Frame Time:   0.008333
 -2.376719   0.925631   3.975860   0.000000   0.000000   0.000000   0.000000   0.000000   0.000000   0.000000   0.000000   0.000000   0.000000   0.000000   0.000000   0.000000   0.000000   0.000000   0.000000   0.000000   0.000000   0.000000   0.000000   0.000000   0.000000   0.000000   0.000000   0.000000   0.000000   0.000000   0.000000   0.000000   0.000000   0.000000   0.000000   0.000000   0.000000   0.000000   0.000000   0.000000   0.000000   0.000000   0.000000   0.000000   0.000000   0.000000   0.000000   0.000000   0.000000   0.000000   0.000000   0.000000   0.000000   0.000000   0.000000   0.000000   0.000000   0.000000   0.000000   0.000000   0.000000   0.000000   0.000000
 -2.377340   0.925634   3.974240   0.107243   0.610691  -0.974936   0.417423  -0.269889   0.974246  -0.111262  -0.291809   0.368873  -0.206476   0.134866   0.004913   0.002179  -0.936265  -0.914996  -0.958221  -0.232195   2.191700   0.052193   3.701414   0.016395   0.006052  -1.016181  -2.254009   0.121592   0.289949  -0.183591   0.601115   0.634203  -2.338555   0.046431  -2.444022   0.024655  -0.010748   0.418988   2.796609  -0.692422  -0.117043   1.080512   2.053378  -0.001816   0.009100  -1.997090  -0.643185  -0.493075   0.292010   0.000944  -0.000363  -1.674366  -0.223394   1.332256   3.616308  -0.011247   0.013636  -2.646612  -0.067075  -0.574649   0.459009   0.000786   0.001366
 -2.377945   0.926618   3.972587   0.025974   1.396722  -1.953627   0.979483  -0.578609   1.954555  -0.045961  -0.654997   0.787765  -0.340688   0.265827   0.076411  -0.010114  -1.911846  -1.301960  -1.858313  -0.484795   4.611502   0.119110   7.490630   0.025061   0.003662  -1.160548  -4.002599   0.245614   0.566436  -1.026146   1.216513   1.207537  -5.203554   0.106895  -4.784880   0.045634   0.034088   0.243576   5.004730  -1.103935  -0.226829   2.097521   4.247944  -0.001363   0.020840  -3.865398  -1.231291  -0.974581   0.479586   0.001441  -0.000114  -3.530325  -0.348806   2.475036   7.279013  -0.012477   0.036613  -5.016469  -0.013603  -1.269140   0.929666   0.002670   0.004397
 -2.378936   0.927267   3.971184  -0.102413   1.982571  -3.021909   1.524935  -0.782147   2.952212   0.077250  -0.947122   1.237942  -0.437605   0.391389   0.172393  -0.016517  -2.814540  -1.360450  -2.686821  -0.748091   7.109365   0.182746  11.288572   0.031659   0.004453  -1.112169  -5.131532   0.365355   0.842720  -2.172042   1.852423   1.753466  -8.362334   0.164405  -6.969847   0.059994   0.093908  -0.044833   6.488745  -1.384426  -0.318416   3.173354   6.380005   0.000192   0.026576  -5.612693  -1.761985  -1.437190   0.637411   0.001762  -0.000101  -5.278945  -0.589484   3.901742  10.803799  -0.017974   0.047968  -7.311944  -0.020604  -1.758260   1.320826   0.002503   0.005244
 -2.380113   0.927381   3.969999  -0.232580   2.403755  -4.029088   2.033155  -0.921425   3.848626   0.203208  -1.174283   1.633981  -0.521206   0.508630   0.275175  -0.010952  -3.641877  -1.178341  -3.442214  -1.022655   9.613095   0.236750  15.087578   0.037866  -0.000356  -1.031152  -5.817456   0.484261   1.125973  -3.538682   2.479950   2.249562 -11.549378   0.211884  -9.000310   0.068390   0.148838  -0.309479   7.398264  -1.577478  -0.409851   4.130010   8.401130   0.002589   0.027598  -7.248278  -2.244942  -1.881569   0.773136   0.001992  -0.000224  -6.944892  -0.866628   5.397117  14.094512  -0.024919   0.053663  -9.454795  -0.006330  -2.210268   1.676697   0.001826   0.005455
 -2.381394   0.926814   3.968998  -0.357760   2.694820  -4.956770   2.503820  -1.014152   4.638162   0.320299  -1.350489   1.958826  -0.598190   0.617466   0.373522   0.008831  -4.399404  -0.844591  -4.126251  -1.306087  12.067854   0.277290  18.850171   0.044098  -0.011777  -0.945544  -6.196113   0.604044   1.409261  -5.025445   3.096665   2.693066 -14.684377   0.247472 -10.887501   0.072465   0.192281  -0.526286   7.912919  -1.697978  -0.497597   4.951352  10.307777   0.005223   0.025658  -8.779046  -2.685371  -2.308139   0.893085   0.002156  -0.000396  -8.538483  -1.174748   6.910535  17.154206  -0.032048   0.056182 -11.455863   0.025055  -2.628530   1.997608   0.000934   0.005310
 -2.382731   0.925465   3.968156  -0.477891   2.889968  -5.809260   2.938534  -1.068866   5.328231   0.425788  -1.482834   2.215036  -0.670232   0.717920   0.465051   0.039879  -5.082372  -0.427097  -4.746420  -1.583225  14.435066   0.299311  22.371603   0.049820  -0.020087  -0.793217  -6.372846   0.724329   1.682387  -6.561703   3.699707   3.081266 -17.723219   0.271511 -12.643886   0.073474   0.225027  -0.702142   8.161422  -1.754809  -0.578329   5.649199  12.104511   0.007703   0.022151 -10.211399  -3.087121  -2.716884   1.000514   0.002261  -0.000563 -10.064322  -1.513240   8.422119  19.997338  -0.038569   0.057071 -13.324505   0.069555  -3.015678   2.286321   0.000005   0.004992
 -2.383820   0.922858   3.966805  -0.484324   3.107506  -6.445441   3.371922  -0.943208   5.797532   0.492247  -1.646711   2.414091  -0.921076   0.993117   0.619894   0.106646  -5.933641  -0.266307  -5.140480  -1.696727  16.693507   0.309869  26.108906   0.044230  -0.072002  -1.012424  -6.246968   0.797559   2.015664  -7.556916   3.958188   3.314583 -20.792292   0.277585 -14.248180   0.066941   0.257806  -0.993332   7.861051  -1.693486  -0.818251   6.094501  13.496005   0.008811   0.016959 -11.690232  -3.483603  -3.029852   1.382340   0.003437  -0.001871 -12.253438  -1.612827   9.590955  23.590857  -0.039442   0.072411 -13.150963  -0.053171  -3.127031   2.441583  -0.000579   0.004869
 -2.384761   0.919151   3.965386  -0.516284   3.231447  -7.010739   3.818203  -0.717869   6.210436   0.586546  -1.725519   2.574718  -1.156246   1.259871   0.763810   0.165586  -6.695651  -0.223936  -5.516464  -1.779885  18.729002   0.304211  29.649773   0.037936  -0.099085  -1.096692  -6.170593   0.866259   2.343058  -8.385307   4.209402   3.533503 -23.597540   0.272808 -15.744480   0.059967   0.278319  -1.277274   7.579832  -1.484454  -1.026936   6.477525  14.776465   0.009121   0.011913 -13.076218  -3.847318  -3.331357   1.727710   0.004174  -0.002929 -14.495165  -1.736000  10.609828  27.025395  -0.035820   0.081615 -12.957324  -0.166688  -3.230895   2.753525  -0.001300   0.005559
 -2.385612   0.914422   3.963980  -0.564358   3.296204  -7.536753   4.255972  -0.434457   6.587292   0.698633  -1.731991   2.712661  -1.370871   1.509349   0.897757   0.209460  -7.369288  -0.265565  -5.881372  -1.838911  20.570836   0.288529  32.970170   0.031786  -0.111282  -1.087473  -6.203095   0.937768   2.672547  -9.092367   4.457470   3.747766 -26.171034   0.260999 -17.135462   0.052688   0.292869  -1.525192   7.399641  -1.164706  -1.207592   6.837950  15.996260   0.008890   0.007445 -14.371425  -4.180226  -3.620653   2.047375   0.004600  -0.003706 -16.732312  -1.902606  11.520346  30.201135  -0.029874   0.085219 -12.776669  -0.272950  -3.328448   3.043803  -0.001575   0.005870
 -2.386402   0.908724   3.962627  -0.624677   3.328046  -8.032333   4.677477  -0.110785   6.931969   0.819862  -1.681913   2.833442  -1.568042   1.741926   1.023223   0.238479  -7.969021  -0.366867  -6.235438  -1.881743  22.245582   0.267499  36.080478   0.025930  -0.113695  -1.017661  -6.329221   1.014417   3.004551  -9.702630   4.703293   3.959246 -28.539682   0.244893 -18.427123   0.045300   0.300991  -1.729912   7.308129  -0.754413  -1.362332   7.186344  17.164523   0.008310   0.003744 -15.581253  -4.484828  -3.897563   2.343720   0.004793  -0.004201 -18.945877  -2.108027  12.335138  33.123409  -0.022960   0.084994 -12.609754  -0.372414  -3.419925   3.306186  -0.001553   0.005896
 -2.387146   0.902103   3.961351  -0.695944   3.342083  -8.501237   5.078726   0.242403   7.246482   0.945454  -1.586953   2.939485  -1.750083   1.958762   1.140773   0.254024  -8.506484  -0.510096  -6.578122  -1.913806  23.774593   0.244191  38.992126   0.020400  -0.109010  -0.905624  -6.526531   1.097517   3.337928 -10.233575   4.947276   4.168206 -30.724831   0.226417 -19.625873   0.038028   0.302905  -1.891234   7.285798  -0.270453  -1.492632   7.526104  18.283756   0.007530   0.000822 -16.711163  -4.763504  -4.162050   2.618284   0.004816  -0.004450 -21.121387  -2.344840  13.060704  35.811581  -0.015917   0.082227 -12.455686  -0.465459  -3.505630   3.542634  -0.001355   0.005733
